<svg height="2500" viewBox="0 0 2499.9999 2499.9999" width="2500" xmlns="http://www.w3.org/2000/svg" xmlns:xlink="http://www.w3.org/1999/xlink"><clipPath id="a"><path d="m0 83h242v-83h-242z"/></clipPath><g transform="matrix(5.2776719 0 0 -5.2776719 601.90674 1462.2859)"><g fill="#325085"><path d="m0 0h4.501l-2.291 5.261zm-7.596-7.044 8.068 17.026h4.098l7.757-17.026h-4.742l-1.553 3.604h-7.493l-1.531-3.604z" transform="translate(68.3584 37.1538)"/><path d="m0 0v17.026h4.27v-13.445h8.758v-3.581z" transform="translate(89.374 30.1099)"/><path d="m109.752 47.136h4.27v-17.026h-4.27z"/></g><g clip-path="url(#a)"><path d="m0 0v-10.068h3.302c1.949 0 3.43.424 4.443 1.281 1.013.856 1.519 2.106 1.519 3.757 0 1.653-.504 2.903-1.511 3.754-1.011.851-2.494 1.276-4.451 1.276zm3.211 3.422c1.841 0 3.219-.088 4.137-.263.917-.172 1.736-.455 2.458-.856 1.258-.684 2.229-1.665 2.911-2.947.683-1.28 1.025-2.768 1.025-4.454 0-1.682-.342-3.161-1.025-4.444-.682-1.28-1.653-2.266-2.911-2.957-.722-.399-1.541-.683-2.458-.851-.918-.169-2.296-.255-4.137-.255h-7.689v17.027z" fill="#325085" transform="translate(126.6699 43.7144)"/><g fill="#71bf51"><path d="m0 0h4.501l-2.29 5.261zm-7.596-7.044 8.069 17.026h4.096l7.758-17.026h-4.742l-1.553 3.604h-7.493l-1.532-3.604z" transform="translate(177.6382 37.1538)"/><path d="m0 0h4.822c1.274 0 2.169.153 2.687.465s.778.822.778 1.536c0 .689-.242 1.174-.727 1.45-.482.278-1.456.415-2.923.415h-4.637zm-4.271-9.762v17.026h10.462c2.273 0 3.944-.372 5.019-1.118 1.073-.746 1.611-1.899 1.611-3.465 0-.999-.252-1.88-.754-2.645-.503-.769-1.194-1.321-2.078-1.66.752-.316 1.279-.702 1.584-1.167.302-.467.481-1.284.535-2.458.007-.118.015-.273.024-.471.091-2.112.39-3.459.897-4.042h-4.789c-.115.185-.201.388-.259.611-.058.222-.086.461-.086.713v1.155c0 1.563-.202 2.584-.604 3.07-.403.484-1.191.725-2.365.725h-.104-4.822v-6.274z" transform="translate(199.0894 39.8721)"/><path d="m0 0v17.026h15.112v-3.444h-10.842v-2.877h9.656v-3.464h-9.656v-3.66h10.842v-3.581z" transform="translate(218.7666 30.1099)"/><path d="m0 0c-.229-2.133-1.234-3.839-3.01-5.122-1.777-1.283-4.043-1.922-6.797-1.922-3.108 0-5.588.811-7.436 2.434-1.85 1.623-2.774 3.797-2.774 6.52 0 2.724.924 4.9 2.774 6.526 1.848 1.628 4.328 2.442 7.436 2.442 2.717 0 4.963-.613 6.74-1.836 1.776-1.225 2.775-2.83 2.998-4.818h-4.651c-.284 1.043-.853 1.829-1.709 2.359-.856.531-1.982.795-3.378.795-1.704 0-3.049-.487-4.034-1.461-.987-.976-1.48-2.31-1.48-4.007 0-1.687.491-3.016 1.473-3.988.983-.971 2.33-1.455 4.041-1.455 1.48 0 2.672.31 3.574.932.902.621 1.422 1.487 1.56 2.601z" transform="translate(166.1294 36.7065)"/></g><path d="m0 0c-.599-1.035-1.193-2.085-1.778-3.142.287.024.573.045.847.045 7.588 0 13.761-6.482 13.761-14.446 0-7.965-6.173-14.447-13.761-14.447h-25.926c1.122-1.207 2.251-2.26 3.375-3.146h22.551c9.323 0 16.908 7.89 16.908 17.593 0 9.372-7.088 17.037-15.977 17.543" fill="#6bbc51" transform="translate(71.5771 55.0728)"/><path d="m0 0c-.14-1.574-.131-3.311.031-5.194 3.658 5.963 10.043 9.888 17.118 9.888 5.224 0 10.103-2.085 13.789-5.643.565 1.056 1.093 2.008 1.577 2.834-4.182 3.767-9.589 5.957-15.366 5.957-6.678 0-12.817-3.013-17.149-7.842" fill="#8dc74d" transform="translate(30.5923 61.0981)"/><path d="m0 0h-6.37c-5.233 0-9.626 3.802-10.84 8.91-.217.912-.344 1.86-.344 2.843 0 5.451 3.545 10.033 8.331 11.365.723.201 1.471.326 2.243.37.901-4.3 2.163-8.349 3.674-12.099 1.699-4.218 3.715-8.056 5.944-11.389zm15.241-3.146c-1 .946-1.991 1.991-2.963 3.146-3.042 3.618-5.876 8.231-8.199 13.527-1.187 2.708-2.251 5.583-3.121 8.618-.065.225-.129.451-.191.68-.267.965-.523 1.942-.752 2.936-.263 1.147-.48 2.252-.66 3.32-.349 2.099-.537 4.042-.58 5.822-.281 11.514 5.494 16.263 12.637 13.515.764-.294 1.528-.676 2.273-1.106-1.75 1.326-3.581 2.422-5.431 3.165-10.144 4.039-19.033-3.98-15.803-23.863-.764-.061-1.509-.191-2.233-.378-6.237-1.585-10.918-7.492-10.919-14.483 0-1.072.115-2.116.323-3.125 1.387-6.719 7.138-11.774 14.008-11.774h8.5 2.773c8.125-10.389 18.138-14.489 24.703-8.176 1.804 1.719 3.008 4.15 3.773 6.927-.503-.885-1.092-1.693-1.801-2.325-4.28-3.807-10.458-1.994-16.337 3.574" fill="#325085" transform="translate(29.4468 23.083)"/><path d="m0 0c-.342-.291-1.019-1.349-1.894-2.894-.48-.845-1.019-1.836-1.598-2.934-1.591-3.02-3.47-6.822-5.179-10.481-1.951-4.176-3.679-8.167-4.498-10.589-2.002 1.774-3.857 3.407-5.519 4.862-4.608 4.033-7.698 6.643-8.092 6.723-.478.089-6.308-2.006-7.193-2.799-.11-.101-.156-.182-.092-.234 0 0 .076-.061.192-.153.817-.655 4.328-3.459 8.37-6.662 6.455-5.111 14.271-11.233 14.665-11.225.393.008 5.583 11.992 11.979 23.686.595 1.091 1.201 2.177 1.815 3.253.743 1.3 1.499 2.568 2.258 3.812 3.473 5.698 7.068 10.662 10.3 13.183-8.31-3.952-13.887-6.155-15.514-7.548" fill="#325085" transform="translate(66.4092 64.4937)"/><path d="m0 0c-.14-1.574-.131-3.311.031-5.194 3.658 5.963 10.043 9.888 17.118 9.888 5.224 0 10.103-2.085 13.789-5.643.565 1.056 1.093 2.008 1.577 2.834-4.182 3.767-9.589 5.957-15.366 5.957-6.678 0-12.817-3.013-17.149-7.842" fill="#8dc74d" transform="translate(30.5923 61.0981)"/><g fill="#2c6ab1"><path d="m0 0c-.477.089-6.308-2.006-7.193-2.799.036-.129.064-.262.1-.387.818-.655 4.328-3.459 8.37-6.662 2.316.961 4.585 2.008 6.815 3.125-4.608 4.033-7.697 6.643-8.092 6.723" transform="translate(39.6289 49.1807)"/><path d="m0 0c-8.31-3.952-13.887-6.155-15.514-7.548-.342-.291-1.019-1.349-1.894-2.893-.481-.846-1.019-1.837-1.598-2.935-1.592-3.02-3.47-6.822-5.179-10.48 4.921 3.181 9.574 6.74 13.885 10.673 3.472 5.698 7.068 10.663 10.3 13.183" transform="translate(81.9233 72.0415)"/><path d="m0 0c0 5.451 3.544 10.033 8.331 11.365.723.201 1.471.326 2.242.37.902-4.3 2.164-8.349 3.674-12.099 2.5.621 4.959 1.342 7.386 2.138-1.188 2.708-2.252 5.583-3.122 8.618-.064.225-.129.451-.191.68-.267.966-.523 1.942-.752 2.936-.262 1.147-.48 2.252-.659 3.32-.349 2.099-.537 4.042-.58 5.822-.282 11.514 5.494 16.263 12.637 13.515.764-.293 1.528-.676 2.273-1.106-1.75 1.326-3.582 2.422-5.431 3.165-10.144 4.039-19.034-3.98-15.804-23.863-.764-.061-1.508-.191-2.233-.378-6.236-1.585-10.917-7.492-10.918-14.483 0-1.072.115-2.116.323-3.125 1.059.083 2.117.166 3.168.282-.217.912-.344 1.86-.344 2.843" transform="translate(11.8931 34.8359)"/></g></g></g></svg>