<svg width="375" height="96" viewBox="0 0 375 96" fill="none" xmlns="http://www.w3.org/2000/svg">
<g filter="url(#filter0_d)">
<path fill-rule="evenodd" clip-rule="evenodd" d="M0 12H375V96H0V12Z" fill="white"/>
</g>
<rect x="29" y="28" width="317" height="52" rx="26" fill="#3C4A63"/>
<path d="M166.005 47.54C166.125 47.54 166.225 47.5467 166.305 47.56C166.385 47.5667 166.455 47.5867 166.515 47.62C166.581 47.6467 166.645 47.69 166.705 47.75C166.765 47.8033 166.831 47.8767 166.905 47.97L174.495 57.64C174.468 57.4067 174.448 57.18 174.435 56.96C174.428 56.7333 174.425 56.5233 174.425 56.33V47.54H176.795V62H175.405C175.191 62 175.015 61.9667 174.875 61.9C174.735 61.8333 174.598 61.7133 174.465 61.54L166.905 51.91C166.925 52.1233 166.938 52.3367 166.945 52.55C166.958 52.7567 166.965 52.9467 166.965 53.12V62H164.595V47.54H166.005ZM184.812 51.58C185.459 51.58 186.052 51.6833 186.592 51.89C187.139 52.0967 187.609 52.4 188.002 52.8C188.395 53.1933 188.702 53.68 188.922 54.26C189.142 54.8333 189.252 55.49 189.252 56.23C189.252 56.4167 189.242 56.5733 189.222 56.7C189.209 56.82 189.179 56.9167 189.132 56.99C189.092 57.0567 189.035 57.1067 188.962 57.14C188.889 57.1667 188.795 57.18 188.682 57.18H182.342C182.415 58.2333 182.699 59.0067 183.192 59.5C183.685 59.9933 184.339 60.24 185.152 60.24C185.552 60.24 185.895 60.1933 186.182 60.1C186.475 60.0067 186.729 59.9033 186.942 59.79C187.162 59.6767 187.352 59.5733 187.512 59.48C187.679 59.3867 187.839 59.34 187.992 59.34C188.092 59.34 188.179 59.36 188.252 59.4C188.325 59.44 188.389 59.4967 188.442 59.57L189.162 60.47C188.889 60.79 188.582 61.06 188.242 61.28C187.902 61.4933 187.545 61.6667 187.172 61.8C186.805 61.9267 186.429 62.0167 186.042 62.07C185.662 62.1233 185.292 62.15 184.932 62.15C184.219 62.15 183.555 62.0333 182.942 61.8C182.329 61.56 181.795 61.21 181.342 60.75C180.889 60.2833 180.532 59.71 180.272 59.03C180.012 58.3433 179.882 57.55 179.882 56.65C179.882 55.95 179.995 55.2933 180.222 54.68C180.449 54.06 180.772 53.5233 181.192 53.07C181.619 52.61 182.135 52.2467 182.742 51.98C183.355 51.7133 184.045 51.58 184.812 51.58ZM184.862 53.35C184.142 53.35 183.579 53.5533 183.172 53.96C182.765 54.3667 182.505 54.9433 182.392 55.69H187.032C187.032 55.37 186.989 55.07 186.902 54.79C186.815 54.5033 186.682 54.2533 186.502 54.04C186.322 53.8267 186.095 53.66 185.822 53.54C185.549 53.4133 185.229 53.35 184.862 53.35ZM194.08 56.71L190.71 51.74H193.09C193.27 51.74 193.403 51.7667 193.49 51.82C193.577 51.8667 193.653 51.9467 193.72 52.06L195.87 55.49C195.903 55.3767 195.943 55.2633 195.99 55.15C196.043 55.0367 196.107 54.9233 196.18 54.81L197.91 52.11C197.99 51.9833 198.073 51.89 198.16 51.83C198.247 51.77 198.353 51.74 198.48 51.74H200.75L197.37 56.6L200.89 62H198.51C198.33 62 198.183 61.9533 198.07 61.86C197.963 61.7667 197.873 61.66 197.8 61.54L195.62 57.97C195.56 58.21 195.477 58.41 195.37 58.57L193.45 61.54C193.377 61.6533 193.287 61.76 193.18 61.86C193.073 61.9533 192.94 62 192.78 62H190.57L194.08 56.71ZM206.821 62.16C205.934 62.16 205.251 61.91 204.771 61.41C204.291 60.9033 204.051 60.2067 204.051 59.32V53.59H203.011C202.878 53.59 202.761 53.5467 202.661 53.46C202.568 53.3733 202.521 53.2433 202.521 53.07V52.09L204.171 51.82L204.691 49.02C204.718 48.8867 204.778 48.7833 204.871 48.71C204.971 48.6367 205.094 48.6 205.241 48.6H206.521V51.83H209.221V53.59H206.521V59.15C206.521 59.47 206.601 59.72 206.761 59.9C206.921 60.08 207.134 60.17 207.401 60.17C207.554 60.17 207.681 60.1533 207.781 60.12C207.888 60.08 207.978 60.04 208.051 60C208.131 59.96 208.201 59.9233 208.261 59.89C208.321 59.85 208.381 59.83 208.441 59.83C208.514 59.83 208.574 59.85 208.621 59.89C208.668 59.9233 208.718 59.9767 208.771 60.05L209.511 61.25C209.151 61.55 208.738 61.7767 208.271 61.93C207.804 62.0833 207.321 62.16 206.821 62.16Z" fill="white"/>
<defs>
<filter id="filter0_d" x="-12" y="0" width="399" height="108" filterUnits="userSpaceOnUse" color-interpolation-filters="sRGB">
<feFlood flood-opacity="0" result="BackgroundImageFix"/>
<feColorMatrix in="SourceAlpha" type="matrix" values="0 0 0 0 0 0 0 0 0 0 0 0 0 0 0 0 0 0 127 0"/>
<feOffset/>
<feGaussianBlur stdDeviation="6"/>
<feColorMatrix type="matrix" values="0 0 0 0 0.615686 0 0 0 0 0.639216 0 0 0 0 0.701961 0 0 0 1 0"/>
<feBlend mode="normal" in2="BackgroundImageFix" result="effect1_dropShadow"/>
<feBlend mode="normal" in="SourceGraphic" in2="effect1_dropShadow" result="shape"/>
</filter>
</defs>
</svg>
