<svg width="317" height="52" viewBox="0 0 317 52" fill="none" xmlns="http://www.w3.org/2000/svg">
<rect width="317" height="52" rx="26" fill="#3C4A63"/>
<path d="M137.005 19.54C137.125 19.54 137.225 19.5467 137.305 19.56C137.385 19.5667 137.455 19.5867 137.515 19.62C137.581 19.6467 137.645 19.69 137.705 19.75C137.765 19.8033 137.831 19.8767 137.905 19.97L145.495 29.64C145.468 29.4067 145.448 29.18 145.435 28.96C145.428 28.7333 145.425 28.5233 145.425 28.33V19.54H147.795V34H146.405C146.191 34 146.015 33.9667 145.875 33.9C145.735 33.8333 145.598 33.7133 145.465 33.54L137.905 23.91C137.925 24.1233 137.938 24.3367 137.945 24.55C137.958 24.7567 137.965 24.9467 137.965 25.12V34H135.595V19.54H137.005ZM155.812 23.58C156.459 23.58 157.052 23.6833 157.592 23.89C158.139 24.0967 158.609 24.4 159.002 24.8C159.395 25.1933 159.702 25.68 159.922 26.26C160.142 26.8333 160.252 27.49 160.252 28.23C160.252 28.4167 160.242 28.5733 160.222 28.7C160.209 28.82 160.179 28.9167 160.132 28.99C160.092 29.0567 160.035 29.1067 159.962 29.14C159.889 29.1667 159.795 29.18 159.682 29.18H153.342C153.415 30.2333 153.699 31.0067 154.192 31.5C154.685 31.9933 155.339 32.24 156.152 32.24C156.552 32.24 156.895 32.1933 157.182 32.1C157.475 32.0067 157.729 31.9033 157.942 31.79C158.162 31.6767 158.352 31.5733 158.512 31.48C158.679 31.3867 158.839 31.34 158.992 31.34C159.092 31.34 159.179 31.36 159.252 31.4C159.325 31.44 159.389 31.4967 159.442 31.57L160.162 32.47C159.889 32.79 159.582 33.06 159.242 33.28C158.902 33.4933 158.545 33.6667 158.172 33.8C157.805 33.9267 157.429 34.0167 157.042 34.07C156.662 34.1233 156.292 34.15 155.932 34.15C155.219 34.15 154.555 34.0333 153.942 33.8C153.329 33.56 152.795 33.21 152.342 32.75C151.889 32.2833 151.532 31.71 151.272 31.03C151.012 30.3433 150.882 29.55 150.882 28.65C150.882 27.95 150.995 27.2933 151.222 26.68C151.449 26.06 151.772 25.5233 152.192 25.07C152.619 24.61 153.135 24.2467 153.742 23.98C154.355 23.7133 155.045 23.58 155.812 23.58ZM155.862 25.35C155.142 25.35 154.579 25.5533 154.172 25.96C153.765 26.3667 153.505 26.9433 153.392 27.69H158.032C158.032 27.37 157.989 27.07 157.902 26.79C157.815 26.5033 157.682 26.2533 157.502 26.04C157.322 25.8267 157.095 25.66 156.822 25.54C156.549 25.4133 156.229 25.35 155.862 25.35ZM165.08 28.71L161.71 23.74H164.09C164.27 23.74 164.403 23.7667 164.49 23.82C164.577 23.8667 164.653 23.9467 164.72 24.06L166.87 27.49C166.903 27.3767 166.943 27.2633 166.99 27.15C167.043 27.0367 167.107 26.9233 167.18 26.81L168.91 24.11C168.99 23.9833 169.073 23.89 169.16 23.83C169.247 23.77 169.353 23.74 169.48 23.74H171.75L168.37 28.6L171.89 34H169.51C169.33 34 169.183 33.9533 169.07 33.86C168.963 33.7667 168.873 33.66 168.8 33.54L166.62 29.97C166.56 30.21 166.477 30.41 166.37 30.57L164.45 33.54C164.377 33.6533 164.287 33.76 164.18 33.86C164.073 33.9533 163.94 34 163.78 34H161.57L165.08 28.71ZM177.821 34.16C176.934 34.16 176.251 33.91 175.771 33.41C175.291 32.9033 175.051 32.2067 175.051 31.32V25.59H174.011C173.878 25.59 173.761 25.5467 173.661 25.46C173.568 25.3733 173.521 25.2433 173.521 25.07V24.09L175.171 23.82L175.691 21.02C175.718 20.8867 175.778 20.7833 175.871 20.71C175.971 20.6367 176.094 20.6 176.241 20.6H177.521V23.83H180.221V25.59H177.521V31.15C177.521 31.47 177.601 31.72 177.761 31.9C177.921 32.08 178.134 32.17 178.401 32.17C178.554 32.17 178.681 32.1533 178.781 32.12C178.888 32.08 178.978 32.04 179.051 32C179.131 31.96 179.201 31.9233 179.261 31.89C179.321 31.85 179.381 31.83 179.441 31.83C179.514 31.83 179.574 31.85 179.621 31.89C179.668 31.9233 179.718 31.9767 179.771 32.05L180.511 33.25C180.151 33.55 179.738 33.7767 179.271 33.93C178.804 34.0833 178.321 34.16 177.821 34.16Z" fill="white"/>
</svg>
