<!-- 
  Copyright 2020 Google LLC
 
  Use of this source code is governed by an MIT-style
  license that can be found in the LICENSE file or at
  https://opensource.org/licenses/MIT. -->
<svg width="50px" version="1.1" id="Layer_1" xmlns="http://www.w3.org/2000/svg" xmlns:xlink="http://www.w3.org/1999/xlink" x="0px" y="0px"
	 viewBox="0 0 529 529" style="enable-background:new 0 0 529 529;" xml:space="preserve">
<style type="text/css">
	.st0{fill:#010101;}
</style>
<path class="st0" d="M267,521c8.3,0,15-6.7,15-15v-96.4c0-8.3-6.7-15-15-15s-15,6.7-15,15V506C252,514.3,258.7,521,267,521z"/>
<g>
	<g>
		<path class="st0" d="M139,486.7c7.2,4.1,16.3,1.7,20.5-5.5l48.2-83.5c4.1-7.2,1.7-16.3-5.5-20.5c-2.4-1.4-4.9-2-7.5-2
			c-5.2,0-10.2,2.7-13,7.5l-48.2,83.5C129.4,473.4,131.8,482.6,139,486.7z"/>
	</g>
</g>
<g>
	<g>
		<path class="st0" d="M45.3,393c4.1,7.2,13.3,9.6,20.5,5.5l83.5-48.2c7.2-4.1,9.6-13.3,5.5-20.5c-2.8-4.8-7.8-7.5-13-7.5
			c-2.5,0-5.1,0.6-7.5,2l-83.5,48.2C43.6,376.6,41.2,385.8,45.3,393z"/>
	</g>
</g>
<g>
	<g>
		<path class="st0" d="M326.3,397.7l48.2,83.5c4.1,7.2,13.3,9.6,20.5,5.5c7.2-4.1,9.6-13.3,5.5-20.5l-48.2-83.5
			c-2.8-4.8-7.8-7.5-13-7.5c-2.5,0-5.1,0.6-7.5,2C324.6,381.4,322.2,390.6,326.3,397.7z"/>
	</g>
</g>
<g>
	<g>
		<path class="st0" d="M384.7,350.3l83.5,48.2c7.2,4.1,16.3,1.7,20.5-5.5c4.1-7.2,1.7-16.3-5.5-20.5l-83.5-48.2
			c-2.4-1.4-4.9-2-7.5-2c-5.2,0-10.2,2.7-13,7.5C375.1,337,377.6,346.1,384.7,350.3z"/>
	</g>
</g>
<g>
	<g>
		<path class="st0" d="M267,135.4c8.3,0,15-6.7,15-15V24c0-8.3-6.7-15-15-15s-15,6.7-15,15v96.4C252,128.7,258.7,135.4,267,135.4z"
			/>
	</g>
</g>
<g>
	<g>
		<path class="st0" d="M411.6,280H508c8.3,0,15-6.7,15-15c0-8.3-6.7-15-15-15h-96.4c-8.3,0-15,6.7-15,15S403.3,280,411.6,280z"/>
	</g>
</g>
<g>
	<g>
		<path class="st0" d="M379.2,200.2c4.1,7.2,13.3,9.6,20.5,5.5l83.5-48.2c7.2-4.1,9.6-13.3,5.5-20.5c-2.8-4.8-7.8-7.5-13-7.5
			c-2.5,0-5.1,0.6-7.5,2l-83.5,48.2C377.6,183.9,375.1,193,379.2,200.2z"/>
	</g>
</g>
<g>
	<g>
		<path class="st0" d="M331.8,152.8c7.2,4.1,16.3,1.7,20.5-5.5l48.2-83.5c4.1-7.2,1.7-16.3-5.5-20.5c-2.4-1.4-4.9-2-7.5-2
			c-5.2,0-10.2,2.7-13,7.5l-48.2,83.5C322.2,139.4,324.6,148.6,331.8,152.8z"/>
	</g>
</g>
<g>
	<g>
		<path class="st0" d="M133.5,63.8l48.2,83.5c4.1,7.2,13.3,9.6,20.5,5.5c7.2-4.1,9.6-13.3,5.5-20.5l-48.2-83.5
			c-2.8-4.8-7.8-7.5-13-7.5c-2.5,0-5.1,0.6-7.5,2C131.8,47.4,129.4,56.6,133.5,63.8z"/>
	</g>
</g>
<g>
	<g>
		<path class="st0" d="M50.8,157.5l83.5,48.2c7.2,4.1,16.3,1.7,20.5-5.5c4.1-7.2,1.7-16.3-5.5-20.5l-83.5-48.2c-2.4-1.4-4.9-2-7.5-2
			c-5.2,0-10.2,2.7-13,7.5C41.2,144.2,43.6,153.3,50.8,157.5z"/>
	</g>
</g>
<g>
	<g>
		<path class="st0" d="M26,280h96.4c8.3,0,15-6.7,15-15s-6.7-15-15-15H26c-8.3,0-15,6.7-15,15S17.7,280,26,280z"/>
	</g>
</g>
</svg>
