<svg version="1.1" viewBox="0.0 0.0 768.0 96.0" fill="none" stroke="none" stroke-linecap="square" stroke-miterlimit="10" xmlns:xlink="http://www.w3.org/1999/xlink" xmlns="http://www.w3.org/2000/svg"><clipPath id="ga3a48ec5f0_0_99.0"><path d="m0 0l768.0 0l0 96.0l-768.0 0l0 -96.0z" clip-rule="nonzero"/></clipPath><g clip-path="url(#ga3a48ec5f0_0_99.0)"><path fill="#ffffff" d="m0 0l768.0 0l0 96.0l-768.0 0z" fill-rule="evenodd"/><g filter="url(#shadowFilter-ga3a48ec5f0_0_99.1)"><use xlink:href="#ga3a48ec5f0_0_99.1" transform="matrix(1.0 0.0 0.0 1.0 1.5542918127665681 1.2586407198367782)"/></g><defs><filter id="shadowFilter-ga3a48ec5f0_0_99.1" filterUnits="userSpaceOnUse"><feGaussianBlur in="SourceAlpha" stdDeviation="1.5" result="blur"/><feComponentTransfer in="blur" color-interpolation-filters="sRGB"><feFuncR type="linear" slope="0" intercept="0.0"/><feFuncG type="linear" slope="0" intercept="0.0"/><feFuncB type="linear" slope="0" intercept="0.0"/><feFuncA type="linear" slope="0.5" intercept="0"/></feComponentTransfer></filter></defs><g id="ga3a48ec5f0_0_99.1"><path fill="#000000" fill-opacity="0.0" d="m76.314964 -13.031496l615.3701 0l0 103.21259l-615.3701 0z" fill-rule="evenodd"/><path fill="#666666" d="m246.47447 24.334173l17.35939 0l0 4.15625l-12.95314 0l0 8.406248l11.67189 0l0 4.15625l-11.67189 0l0 11.921875l-4.40625 0l0 -28.640623zm22.080002 0l9.171875 0q4.4375 0 7.734375 1.796875q3.296875 1.796875 5.078125 5.0625q1.78125 3.265623 1.78125 7.468748q0 4.1875 -1.78125 7.453125q-1.78125 3.265625 -5.078125 5.0625q-3.296875 1.796875 -7.734375 1.796875l-9.171875 0l0 -28.640623zm9.046875 24.484373q4.875 0 7.578125 -2.703125q2.703125 -2.703125 2.703125 -7.453125q0 -4.765625 -2.703125 -7.468748q-2.703125 -2.703125 -7.578125 -2.703125l-4.640625 0l0 20.328123l4.640625 0zm26.724976 -24.484373l5.0 0l10.828125 28.640623l-4.828125 0l-2.640625 -7.359375l-11.6875 0l-2.640625 7.359375l-4.84375 0l10.8125 -28.640623zm6.90625 17.203123l-3.1875 -8.765625l-1.078125 -3.281248l-0.25 0l-1.078125 3.281248l-3.203125 8.765625l8.796875 0zm9.527466 11.4375l0 0zm12.554382 -28.640623l5.921875 0l8.359375 21.796873l0.25 0l8.390625 -21.796873l5.921875 0l0 28.640623l-4.3125 0l0 -16.203125l0.234375 -5.078123l-0.234375 0l-8.359375 21.281248l-3.484375 0l-8.359375 -21.281248l-0.25 0l0.25 5.078123l0 16.203125l-4.328125 0l0 -28.640623zm40.529358 27.515623l-8.53125 -19.28125l4.8125 0l5.828125 13.921875l0.203125 0l5.640625 -13.921875l4.765625 0l-12.609375 29.046875l-4.59375 0l4.484375 -9.765625zm24.598694 1.765625q-3.5625 0 -6.40625 -2.078125q-2.84375 -2.078125 -3.953125 -5.84375l4.15625 -1.671875q0.640625 2.390625 2.28125 3.921875q1.640625 1.515625 3.953125 1.515625q2.171875 0 3.671875 -1.125q1.5 -1.125 1.5 -3.078125q0 -1.796875 -1.328125 -2.96875q-1.3125 -1.1875 -4.5625 -2.3125l-1.796875 -0.640625q-2.921875 -1.046875 -4.859375 -2.90625q-1.9375 -1.859375 -1.9375 -4.937498q0 -2.109375 1.140625 -3.90625q1.140625 -1.8125 3.203125 -2.84375q2.0625 -1.046875 4.65625 -1.046875q3.71875 0 5.953125 1.828125q2.25 1.8125 3.046875 4.09375l-3.96875 1.671875q-0.390625 -1.4375 -1.671875 -2.46875q-1.28125 -1.046875 -3.328125 -1.046875q-1.953125 0 -3.3125 1.046875q-1.359375 1.03125 -1.359375 2.640625q0 1.4687481 1.21875 2.453123q1.21875 0.984375 3.78125 1.859375l1.84375 0.640625q3.671875 1.28125 5.671875 3.328125q2.0 2.03125 2.0 5.4375q0 2.796875 -1.421875 4.703125q-1.421875 1.890625 -3.640625 2.8125q-2.21875 0.921875 -4.53125 0.921875zm21.3125 -0.328125q-1.359375 0 -2.546875 -0.40625q-1.171875 -0.421875 -1.921875 -1.1875q-1.71875 -1.640625 -1.71875 -4.640625l0 -10.71875l-3.5625 0l0 -3.765625l3.5625 0l0 -5.749998l4.3125 0l0 5.749998l5.0 0l0 3.765625l-5.0 0l0 9.796875q0 1.6875 0.640625 2.359375q0.671875 0.765625 2.078125 0.765625q0.71875 0 1.234375 -0.171875q0.53125 -0.1875 1.171875 -0.59375l0 4.203125q-1.359375 0.59375 -3.25 0.59375zm14.726868 0.328125q-3.6875 0 -5.625 -2.21875q-1.9375 -2.21875 -1.9375 -6.1875l0 -12.640625l4.328125 0l0 12.046875q0 2.484375 1.15625 3.765625q1.15625 1.28125 3.109375 1.28125q1.609375 0 2.84375 -0.84375q1.25 -0.84375 1.90625 -2.234375q0.65625 -1.40625 0.65625 -3.046875l0 -10.96875l4.28125 0l0 20.40625l-4.046875 0l0 -2.765625l-0.234375 0q-0.875 1.484375 -2.640625 2.453125q-1.765625 0.953125 -3.796875 0.953125zm24.3125 0q-2.75 0 -5.0 -1.375q-2.234375 -1.390625 -3.515625 -3.859375q-1.28125 -2.484375 -1.28125 -5.609375q0 -3.109375 1.28125 -5.5625q1.28125 -2.46875 3.515625 -3.875q2.25 -1.4062481 5.0 -1.4062481q2.25 0 3.96875 0.9843731q1.71875 0.984375 2.59375 2.421875l0.25 0l-0.25 -2.84375l0 -8.156248l4.28125 0l0 28.640623l-4.03125 0l0 -2.71875l-0.25 0q-0.875 1.40625 -2.59375 2.390625q-1.71875 0.96875 -3.96875 0.96875zm0.640625 -3.953125q1.609375 0 3.015625 -0.859375q1.421875 -0.875 2.28125 -2.421875q0.875 -1.5625 0.875 -3.609375q0 -2.03125 -0.875 -3.59375q-0.859375 -1.5625 -2.28125 -2.421875q-1.40625 -0.859375 -3.015625 -0.859375q-1.59375 0 -3.015625 0.859375q-1.421875 0.859375 -2.28125 2.421875q-0.859375 1.5625 -0.859375 3.59375q0 2.046875 0.859375 3.609375q0.859375 1.546875 2.28125 2.421875q1.421875 0.859375 3.015625 0.859375zm17.764954 -20.093748q-1.203125 0 -2.0625 -0.859375q-0.859375 -0.859375 -0.859375 -2.046875q0 -1.203125 0.859375 -2.046875q0.859375 -0.84375 2.0625 -0.84375q1.203125 0 2.0625 0.84375q0.859375 0.84375 0.859375 2.046875q0 1.1875 -0.859375 2.046875q-0.859375 0.859375 -2.0625 0.859375zm-2.15625 2.999998l4.3125 0l0 20.40625l-4.3125 0l0 -20.40625zm18.799988 21.046875q-2.96875 0 -5.34375 -1.390625q-2.375 -1.40625 -3.71875 -3.859375q-1.34375 -2.46875 -1.34375 -5.546875q0 -2.921875 1.296875 -5.421875q1.3125 -2.5 3.625 -3.984375q2.328125 -1.4843731 5.234375 -1.4843731q3.09375 0 5.328125 1.3437481q2.234375 1.34375 3.40625 3.703125q1.1875 2.359375 1.1875 5.359375q0 0.796875 -0.078125 1.359375l-15.75 0q0.265625 2.921875 2.0625 4.5q1.8125 1.578125 4.203125 1.578125q1.96875 0 3.359375 -0.890625q1.40625 -0.90625 2.25 -2.390625l3.5625 1.71875q-1.40625 2.53125 -3.734375 3.96875q-2.3125 1.4375 -5.546875 1.4375zm5.390625 -13.15625q-0.078125 -1.125 -0.71875 -2.234375q-0.640625 -1.125 -1.859375 -1.859375q-1.21875 -0.75 -3.015625 -0.75q-2.15625 0 -3.65625 1.328125q-1.5 1.3125 -2.0625 3.515625l11.3125 0zm15.918732 13.15625q-3.46875 0 -5.734375 -1.515625q-2.265625 -1.53125 -3.171875 -3.96875l3.875 -1.671875q0.71875 1.640625 2.03125 2.5q1.328125 0.859375 3.0 0.859375q1.734375 0 2.890625 -0.625q1.15625 -0.625 1.15625 -1.859375q0 -1.125 -0.984375 -1.78125q-0.96875 -0.65625 -3.0625 -1.140625l-2.4375 -0.5625q-2.4375 -0.59375 -4.046875 -2.109375q-1.59375 -1.53125 -1.59375 -3.84375q0 -1.765625 1.0625 -3.125q1.0625 -1.359375 2.84375 -2.09375q1.78125 -0.7499981 3.90625 -0.7499981q2.875 0 5.015625 1.1249981q2.140625 1.125 3.09375 3.28125l-3.71875 1.6875q-1.234375 -2.453125 -4.359375 -2.453125q-1.515625 0 -2.546875 0.640625q-1.015625 0.640625 -1.015625 1.609375q0 1.796875 3.125 2.59375l2.953125 0.71875q3.0 0.765625 4.53125 2.28125q1.546875 1.515625 1.546875 3.765625q0 1.921875 -1.09375 3.390625q-1.09375 1.453125 -3.015625 2.25q-1.921875 0.796875 -4.25 0.796875z" fill-rule="nonzero"/></g><g filter="url(#shadowFilter-ga3a48ec5f0_0_99.2)"><use xlink:href="#ga3a48ec5f0_0_99.2" transform="matrix(1.0 0.0 0.0 1.0 0.0 2.0)"/></g><defs><filter id="shadowFilter-ga3a48ec5f0_0_99.2" filterUnits="userSpaceOnUse"><feGaussianBlur in="SourceAlpha" stdDeviation="2.0" result="blur"/><feComponentTransfer in="blur" color-interpolation-filters="sRGB"><feFuncR type="linear" slope="0" intercept="0.0"/><feFuncG type="linear" slope="0" intercept="0.0"/><feFuncB type="linear" slope="0" intercept="0.0"/><feFuncA type="linear" slope="0.39" intercept="0"/></feComponentTransfer></filter></defs><g id="ga3a48ec5f0_0_99.2"><path fill="#4285f4" d="m54.110237 72.419945l164.94489 0l0 9.70079l-164.94489 0z" fill-rule="evenodd"/></g><g filter="url(#shadowFilter-ga3a48ec5f0_0_99.3)"><use xlink:href="#ga3a48ec5f0_0_99.3" transform="matrix(1.0 0.0 0.0 1.0 0.0 2.0)"/></g><defs><filter id="shadowFilter-ga3a48ec5f0_0_99.3" filterUnits="userSpaceOnUse"><feGaussianBlur in="SourceAlpha" stdDeviation="2.0" result="blur"/><feComponentTransfer in="blur" color-interpolation-filters="sRGB"><feFuncR type="linear" slope="0" intercept="0.0"/><feFuncG type="linear" slope="0" intercept="0.0"/><feFuncB type="linear" slope="0" intercept="0.0"/><feFuncA type="linear" slope="0.39" intercept="0"/></feComponentTransfer></filter></defs><g id="ga3a48ec5f0_0_99.3"><path fill="#34a853" d="m219.05511 72.419945l164.94489 0l0 9.70079l-164.94489 0z" fill-rule="evenodd"/></g><g filter="url(#shadowFilter-ga3a48ec5f0_0_99.4)"><use xlink:href="#ga3a48ec5f0_0_99.4" transform="matrix(1.0 0.0 0.0 1.0 0.0 2.0)"/></g><defs><filter id="shadowFilter-ga3a48ec5f0_0_99.4" filterUnits="userSpaceOnUse"><feGaussianBlur in="SourceAlpha" stdDeviation="2.0" result="blur"/><feComponentTransfer in="blur" color-interpolation-filters="sRGB"><feFuncR type="linear" slope="0" intercept="0.0"/><feFuncG type="linear" slope="0" intercept="0.0"/><feFuncB type="linear" slope="0" intercept="0.0"/><feFuncA type="linear" slope="0.39" intercept="0"/></feComponentTransfer></filter></defs><g id="ga3a48ec5f0_0_99.4"><path fill="#fbbc05" d="m384.0 72.419945l164.94489 0l0 9.70079l-164.94489 0z" fill-rule="evenodd"/></g><g filter="url(#shadowFilter-ga3a48ec5f0_0_99.5)"><use xlink:href="#ga3a48ec5f0_0_99.5" transform="matrix(1.0 0.0 0.0 1.0 0.0 2.0)"/></g><defs><filter id="shadowFilter-ga3a48ec5f0_0_99.5" filterUnits="userSpaceOnUse"><feGaussianBlur in="SourceAlpha" stdDeviation="2.0" result="blur"/><feComponentTransfer in="blur" color-interpolation-filters="sRGB"><feFuncR type="linear" slope="0" intercept="0.0"/><feFuncG type="linear" slope="0" intercept="0.0"/><feFuncB type="linear" slope="0" intercept="0.0"/><feFuncA type="linear" slope="0.39" intercept="0"/></feComponentTransfer></filter></defs><g id="ga3a48ec5f0_0_99.5"><path fill="#ea4335" d="m548.9449 72.419945l164.94489 0l0 9.70079l-164.94489 0z" fill-rule="evenodd"/></g></g></svg>