<svg width="20" height="20" viewBox="0 0 20 20" fill="none" xmlns="http://www.w3.org/2000/svg">
<path d="M12.2119 10L19.5419 2.66993C20.1527 2.05924 20.1527 1.06887 19.5419 0.458089C18.9312 -0.152605 17.9408 -0.152605 17.33 0.458089L10 7.78816L2.66996 0.458089C2.05926 -0.152697 1.06907 -0.152697 0.458094 0.458089C-0.152697 1.06878 -0.152697 2.05914 0.458094 2.66993L7.78814 10L0.458094 17.3301C-0.152697 17.9408 -0.152697 18.9311 0.458094 19.5419C1.06889 20.1527 2.05916 20.1527 2.66996 19.5419L10 12.2118L17.33 19.5419C17.9407 20.1526 18.9309 20.1528 19.5419 19.5419C20.1527 18.9312 20.1527 17.9409 19.5419 17.3301L12.2119 10Z" fill="#FC6275"/>
</svg>
