<!-- 
  Copyright 2020-2021 Google LLC
 
  Use of this source code is governed by an APACHE LICENSE, VERSION 2.0
  that can be found in the LICENSE file or at
  https://www.apache.org/licenses/LICENSE-2.0.html -->
<svg
  xmlns="http://www.w3.org/2000/svg"
  height="20"
  viewBox="0 0 24 24"
  width="20"
>
  <path d="M0 0h24v24H0V0z" fill="none" />
  <path
    fill="#a7b5cc"
    d="M6 19c0 1.1.9 2 2 2h8c1.1 0 2-.9 2-2V9c0-1.1-.9-2-2-2H8c-1.1 0-2 .9-2 2v10zM18 4h-2.5l-.71-.71c-.18-.18-.44-.29-.7-.29H9.91c-.26 0-.52.11-.7.29L8.5 4H6c-.55 0-1 .45-1 1s.45 1 1 1h12c.55 0 1-.45 1-1s-.45-1-1-1z"
  />
</svg>
