<?xml version="1.0" encoding="utf-8" ?>
<!-- Generator: Adobe Illustrator 25.0.1, SVG Export Plug-In . SVG Version: 6.00 Build 0)  -->
<svg
  version="1.1"
  id="Outline"
  xmlns="http://www.w3.org/2000/svg"
  xmlns:xlink="http://www.w3.org/1999/xlink"
  x="0px"
  y="0px"
  viewBox="0 0 406 490"
  height="100"
  width="130"
  style="enable-background:new 0 0 406 490;"
  xml:space="preserve"
>
  <style type="text/css">
	.st0{fill:#B3BCC6;}
</style>
  <path
    class="st0"
    d="M15,243.9c2.5,1.4,5.5,1.4,8,0l52.3-29.9l60.2,30.1c2.3,1.1,4.9,1.1,7.2,0l60.4-30.2l60.4,30.2
	c2.3,1.1,4.9,1.1,7.2,0l60.2-30.1l52.3,29.9c3.8,2.2,8.7,0.9,10.9-3c0.7-1.2,1.1-2.6,1.1-4V109c0-2.1-0.8-4.2-2.3-5.7l-96-96
	C295.2,5.8,293.1,5,291,5H51C28.9,5,11,22.9,11,45v192C11,239.9,12.5,242.5,15,243.9z M299,32.3l68.7,68.7H323
	c-13.2,0-24-10.8-24-24V32.3z M27,45c0-13.2,10.8-24,24-24h232v56c0,22.1,17.9,40,40,40h56v106.2l-44-25.2c-2.3-1.3-5.2-1.4-7.5-0.2
	L267,228.1l-60.4-30.2c-2.3-1.1-4.9-1.1-7.2,0L139,228.1l-60.4-30.2c-2.4-1.2-5.2-1.1-7.5,0.2l-44,25.2V45z"
  />
  <path
    class="st0"
    d="M51,485h304c22.1,0,40-17.9,40-40V301c0-2.9-1.5-5.5-4-6.9l-56-32c-2.3-1.3-5.2-1.4-7.5-0.2L267,292.1
	l-60.4-30.2c-2.3-1.1-4.9-1.1-7.2,0L139,292.1l-60.4-30.2c-2.4-1.2-5.2-1.1-7.5,0.2l-56,32c-2.5,1.4-4,4.1-4,6.9v144
	C11,467.1,28.9,485,51,485z M27,305.6l48.3-27.6l60.2,30.1c2.3,1.1,4.9,1.1,7.2,0l60.4-30.2l60.4,30.2c2.3,1.1,4.9,1.1,7.2,0
	l60.2-30.1l48.3,27.6V445c0,13.2-10.8,24-24,24H51c-13.2,0-24-10.8-24-24V305.6z"
  />
  <path
    class="st0"
    d="M59,157c0,4.4,3.6,8,8,8h192c4.4,0,8-3.6,8-8s-3.6-8-8-8H67C62.6,149,59,152.6,59,157z"
  />
  <path
    class="st0"
    d="M347,157c0-4.4-3.6-8-8-8h-48c-4.4,0-8,3.6-8,8s3.6,8,8,8h48C343.4,165,347,161.4,347,157z"
  />
  <path
    class="st0"
    d="M221.1,348c0-4.4-3.7-8-8.2-8h-81.8c-4.5,0-8.2,3.6-8.2,8s3.7,8,8.2,8H213C217.5,356,221.1,352.4,221.1,348z"
  />
  <path
    class="st0"
    d="M339,340h-96c-4.4,0-8,3.6-8,8s3.6,8,8,8h96c4.4,0,8-3.6,8-8S343.4,340,339,340z"
  />
  <path
    class="st0"
    d="M67,407h176c4.4,0,8-3.6,8-8s-3.6-8-8-8H67c-4.4,0-8,3.6-8,8S62.6,407,67,407z"
  />
  <path
    class="st0"
    d="M69.3,117h123.4c5.7,0,10.3-3.6,10.3-8s-4.6-8-10.3-8H69.3c-5.7,0-10.3,3.6-10.3,8S63.6,117,69.3,117z"
  />
  <path
    class="st0"
    d="M275,407h64c4.4,0,8-3.6,8-8s-3.6-8-8-8h-64c-4.4,0-8,3.6-8,8S270.6,407,275,407z"
  />
  <path
    class="st0"
    d="M67,356h32c4.4,0,8-3.6,8-8s-3.6-8-8-8H67c-4.4,0-8,3.6-8,8S62.6,356,67,356z"
  />
</svg>
