<!-- 
  Copyright 2020-2021 Google LLC
 
  Use of this source code is governed by an APACHE LICENSE, VERSION 2.0
  that can be found in the LICENSE file or at
  https://www.apache.org/licenses/LICENSE-2.0.html -->
<svg
  version="1.1"
  id="Capa_1"
  height="100"
  width="130"
  xmlns="http://www.w3.org/2000/svg"
  xmlns:xlink="http://www.w3.org/1999/xlink"
  x="0px"
  y="0px"
  viewBox="-49 188.8 512 464.2"
  style="enable-background:new -49 188.8 512 464.2;"
  xml:space="preserve"
>
  <style type="text/css">
	.st0{fill:#B3BCC6;}
</style>
  <path
    class="st0"
    d="M433.9,652.4H-6.9c-19.6,0-35.6-16-35.6-35.6c0,0,0,0,0,0c0-6.1,1.6-12.2,4.6-17.5l220.5-389.2
	c6.4-11.4,18.5-18.5,31.6-18.5c0,0,0,0,0.1,0c13.1,0,25.2,7.1,31.7,18.5l218.9,389.3c3,5.3,4.6,11.3,4.6,17.4
	C469.5,636.4,453.5,652.4,433.9,652.4z M-25.4,616.8c0,10.2,8.3,18.5,18.5,18.5h440.8c10.2,0,18.5-8.3,18.5-18.5
	c0-3.2-0.8-6.3-2.4-9L231.1,218.5c-3.4-6-9.9-9.8-16.9-9.8c-6.6,0.1-13.4,3.7-16.8,9.8L-23,607.7C-24.6,610.5-25.4,613.6-25.4,616.8
	z"
  />
  <g>
    <path
      class="st0"
      d="M111.5,573c2.5,3.3,7.2,3.9,10.5,1.4c0.3-0.3,35.6-26.5,91.4-26.5c55.8,0,91.2,26.2,91.5,26.5
		c1.4,1,3,1.5,4.5,1.5c2.3,0,4.5-1,6-3c2.5-3.3,1.9-8-1.4-10.5c-1.6-1.2-39.5-29.5-100.6-29.5c-61.1,0-98.9,28.3-100.5,29.5
		C109.7,565.1,109,569.7,111.5,573z"
    />
    <path
      class="st0"
      d="M167.8,430.7c-2.6-3.2-7.4-3.7-10.6-1l-17,14c-1.7,1.4-2.7,3.5-2.7,5.8s1,4.4,2.7,5.8l17,14
		c1.4,1.1,3.1,1.7,4.8,1.7c2.2,0,4.3-0.9,5.8-2.7c2.6-3.2,2.2-7.9-1-10.6l-10-8.2l10-8.2C170,438.7,170.4,433.9,167.8,430.7z"
    />
    <path
      class="st0"
      d="M259.2,468.3c1.5,1.8,3.6,2.7,5.8,2.7c1.7,0,3.4-0.6,4.8-1.7l17-14c1.7-1.4,2.7-3.5,2.7-5.8s-1-4.4-2.7-5.8
		l-17-14c-3.2-2.6-7.9-2.2-10.6,1s-2.2,7.9,1,10.6l10,8.2l-10,8.2C257,460.3,256.6,465.1,259.2,468.3z"
    />
  </g>
</svg>
