<!-- 
  Copyright 2020-2021 Google LLC
 
  Use of this source code is governed by an APACHE LICENSE, VERSION 2.0
  that can be found in the LICENSE file or at
  https://www.apache.org/licenses/LICENSE-2.0.html -->
<svg
  height="16px"
  viewBox="0 -53 384 384"
  width="20px"
  xmlns="http://www.w3.org/2000/svg"
>
  <path
    d="m368 154.667969h-352c-8.832031 0-16-7.167969-16-16s7.167969-16 16-16h352c8.832031 0 16 7.167969 16 16s-7.167969 16-16 16zm0 0"
  />
  <path
    d="m368 32h-352c-8.832031 0-16-7.167969-16-16s7.167969-16 16-16h352c8.832031 0 16 7.167969 16 16s-7.167969 16-16 16zm0 0"
  />
  <path
    d="m368 277.332031h-352c-8.832031 0-16-7.167969-16-16s7.167969-16 16-16h352c8.832031 0 16 7.167969 16 16s-7.167969 16-16 16zm0 0"
  />
</svg>
