<?xml version="1.0" encoding="utf-8" ?>
<!-- Generator: Adobe Illustrator 25.0.1, SVG Export Plug-In . SVG Version: 6.00 Build 0)  -->
<svg
  version="1.1"
  id="Isolation_Mode"
  xmlns="http://www.w3.org/2000/svg"
  xmlns:xlink="http://www.w3.org/1999/xlink"
  x="0px"
  y="0px"
  viewBox="0 0 367 451.1"
  style="enable-background:new 0 0 367 451.1;"
  xml:space="preserve"
>
  <style type="text/css">
	.st0{fill:#B3BCC6;}
</style>
  <g>
    <g>
      <g>
        <path
          class="st0"
          d="M364.1,119.1c0-28.3-23-51.3-51.3-51.3h-34.7V55.1c0-4.8-3.9-8.7-8.7-8.7h-34.7l-0.3-1.6
				c-4.8-23.8-26-41.1-50.3-41.1s-45.5,17.3-50.3,41.1l-0.3,1.6H98.8c-4.8,0-8.7,3.9-8.7,8.7v12.7h-34c-28.3,0-51.3,23-51.3,51.3
				v277.3c0,28.3,23,51.3,51.3,51.3h256.7c28.3,0,51.3-23,51.3-51.3V119.1z M107.5,63.8h34c4.8,0,8.7-3.9,8.7-8.7
				c0-18.7,15.3-34,34-34s34,15.3,34,34c0,4.8,3.9,8.7,8.7,8.7h34v34c0,7-5.7,12.7-12.7,12.7h-128c-7,0-12.7-5.7-12.7-12.7V63.8z
				 M346.8,396.5c0,18.7-15.3,34-34,34H56.1c-18.7,0-34-15.3-34-34V119.1c0-18.7,15.3-34,34-34h34v12.7c0,16.5,13.5,30,30,30h128
				c16.5,0,30-13.5,30-30V85.1h34.7c18.7,0,34,15.3,34,34V396.5z"
        />
      </g>
    </g>
    <g>
      <g>
        <path
          class="st0"
          d="M290.8,174.5H77.5c-4.8,0-8.7,3.9-8.7,8.7s3.9,8.7,8.7,8.7h213.3c4.8,0,8.7-3.9,8.7-8.7
				S295.6,174.5,290.8,174.5z"
        />
      </g>
    </g>
    <g>
      <g>
        <path
          class="st0"
          d="M290.8,238.5H77.5c-4.8,0-8.7,3.9-8.7,8.7c0,4.8,3.9,8.7,8.7,8.7h213.3c4.8,0,8.7-3.9,8.7-8.7
				C299.5,242.3,295.6,238.5,290.8,238.5z"
        />
      </g>
    </g>
    <g>
      <g>
        <path
          class="st0"
          d="M290.8,302.5H77.5c-4.8,0-8.7,3.9-8.7,8.7c0,4.8,3.9,8.7,8.7,8.7h213.3c4.8,0,8.7-3.9,8.7-8.7
				C299.5,306.3,295.6,302.5,290.8,302.5z"
        />
      </g>
    </g>
    <g>
      <g>
        <path
          class="st0"
          d="M290.8,365.5H77.5c-4.8,0-8.7,3.9-8.7,8.7c0,4.8,3.9,8.7,8.7,8.7h213.3c4.8,0,8.7-3.9,8.7-8.7
				C299.5,369.3,295.6,365.5,290.8,365.5z"
        />
      </g>
    </g>
  </g>
</svg>
