<!-- 
 * Copyright 2020-2021 Google LLC
 *
 * Use of this source code is governed by an MIT-style
 * license that can be found in the LICENSE file or at
 * https://opensource.org/licenses/MIT.
 -->
<svg
  version="1.1"
  id="Layer_1"
  xmlns="http://www.w3.org/2000/svg"
  xmlns:xlink="http://www.w3.org/1999/xlink"
  x="0px"
  y="0px"
  viewBox="0 0 34 42"
  style="enable-background:new 0 0 34 42;"
  xml:space="preserve"
>
  <style type="text/css">
	.st0{fill:#EAE8E0;}
	.st1{fill:#CD4B4C;}
	.st2{enable-background:new    ;}
	.st3{fill:#FFFFFF;}
	.st4{fill:#CECBC3;}
</style>
  <path
    class="st0"
    d="M4.4,0.5C3.1,0.5,2,1.6,2,2.9v36.2c0,1.3,1.1,2.4,2.4,2.4h26.3c1.3,0,2.4-1.1,2.4-2.4V9.6L22.7,0.5H4.4z"
  />
  <path
    class="st1"
    d="M33.1,28.9v10.2c0,1.3-1.1,2.4-2.4,2.4H4.4c-1.3,0-2.4-1.1-2.4-2.4V28.9"
  />
  <g class="st2">
    <path
      class="st3"
      d="M6.2,30.8h3.7c0.6,0,1.1,0.1,1.5,0.3c0.4,0.2,0.7,0.4,0.9,0.7c0.2,0.3,0.3,0.5,0.4,0.8
		c0.1,0.3,0.1,0.6,0.1,0.9c0,0.3,0,0.5-0.1,0.8c-0.1,0.3-0.2,0.6-0.4,0.9c-0.2,0.3-0.5,0.5-0.9,0.7C10.9,36,10.4,36,9.8,36H7.6v3.3
		H6.2V30.8z M7.6,34.8h2.1c0.2,0,0.3,0,0.5-0.1c0.2-0.1,0.3-0.1,0.5-0.2c0.1-0.1,0.3-0.3,0.4-0.4c0.1-0.2,0.1-0.4,0.1-0.7
		c0-0.6-0.1-0.9-0.4-1.1c-0.1-0.1-0.3-0.2-0.5-0.2c-0.2,0-0.4,0-0.6,0H7.6V34.8z"
    />
    <path
      class="st3"
      d="M14.2,30.8h3.4c1.3,0,2.2,0.4,2.8,1.2c0.6,0.8,0.9,1.8,0.9,3c0,1.2-0.3,2.2-0.9,3c-0.6,0.8-1.5,1.2-2.8,1.3
		h-3.4V30.8z M15.6,38.1H17c1.1,0,1.9-0.3,2.2-0.9c0.2-0.3,0.3-0.6,0.4-1c0-0.2,0.1-0.4,0.1-0.6c0-0.2,0-0.4,0-0.6
		c0-0.9-0.2-1.6-0.5-2.2c-0.2-0.3-0.5-0.5-0.8-0.6C18.1,32.1,17.6,32,17,32h-1.4V38.1z"
    />
    <path
      class="st3"
      d="M22.8,30.8h5.7v1.3h-4.3v2.3H28v1.2h-3.8v3.8h-1.5V30.8z"
    />
  </g>
  <polygon class="st4" points="22.7,0.5 22.7,9.6 33.1,9.6 " />
  <g>
    <path
      class="st1"
      d="M16.6,12L16.6,12C16.7,12,16.7,12,16.6,12c0.1-0.5,0.3-0.8,0.3-1.2v-0.3c0.1-0.7,0.1-1.2,0-1.3V9l-0.1-0.1
		c0,0,0,0.1-0.1,0.1C16.3,9.8,16.3,10.8,16.6,12L16.6,12z M12.6,21.2c-0.3,0.1-0.5,0.3-0.7,0.4c-0.9,0.8-1.6,1.7-1.7,2.1
		C11,23.6,11.8,22.8,12.6,21.2C12.7,21.2,12.7,21.2,12.6,21.2C12.7,21.2,12.6,21.2,12.6,21.2L12.6,21.2z M24.9,19.2
		c-0.1-0.1-0.7-0.5-2.6-0.5H22v0.1c0.9,0.4,1.9,0.7,2.5,0.7H25v-0.1C25,19.3,24.9,19.3,24.9,19.2L24.9,19.2z M25.4,20.3
		c-0.3,0.1-0.7,0.3-1.2,0.3c-1.1,0-2.7-0.3-4-0.9c-2.3,0.3-4,0.5-5.4,1.1c-0.1,0-0.1,0-0.3,0.1c-1.6,2.8-2.9,4.1-4,4.1
		c-0.3,0-0.4,0-0.5-0.1l-0.7-0.4v-0.1c-0.1-0.3-0.1-0.4-0.1-0.7c0.1-0.7,0.9-1.9,2.6-2.8c0.3-0.1,0.7-0.4,1.2-0.7
		c0.4-0.7,0.8-1.5,1.3-2.4c0.7-1.3,1.1-2.7,1.5-3.9c-0.5-1.6-0.8-2.6-0.3-4.4C15.6,9,16,8.4,16.6,8.4h0.3c0.3,0,0.5,0.1,0.8,0.3
		c0.9,0.9,0.5,3.1,0,4.8v0.1c0.5,1.5,1.3,2.7,2.1,3.5c0.4,0.3,0.7,0.5,1.2,0.8c0.7,0,1.2-0.1,1.7-0.1c1.6,0,2.7,0.3,3.1,0.9
		c0.1,0.3,0.1,0.5,0.1,0.8C25.8,19.6,25.7,20,25.4,20.3L25.4,20.3z M16.7,15c-0.3,0.9-0.8,2-1.3,3.2c-0.3,0.5-0.5,0.9-0.8,1.5h0.3
		c1.7-0.7,3.3-1.1,4.4-1.2c-0.3-0.1-0.4-0.3-0.5-0.4C18.1,17.3,17.2,16.2,16.7,15L16.7,15z"
    />
  </g>
</svg>
